<svg width="30" height="31" viewBox="0 0 30 31" fill="none" xmlns="http://www.w3.org/2000/svg">
<rect width="24" height="24" transform="translate(3)" fill="white"/>
<g filter="url(#filter0_d_1_205)">
<path fill-rule="evenodd" clip-rule="evenodd" d="M13 2.25C8.71979 2.25 5.25 5.71979 5.25 10C5.25 14.2802 8.71979 17.75 13 17.75C14.87 17.75 16.5853 17.0877 17.9242 15.9848L23.4697 21.5303L23.5538 21.6029C23.8474 21.8208 24.2641 21.7966 24.5303 21.5303C24.8232 21.2374 24.8232 20.7626 24.5303 20.4697L18.9848 14.9242C20.0877 13.5853 20.75 11.87 20.75 10C20.75 5.71979 17.2802 2.25 13 2.25ZM13 3.75C16.4518 3.75 19.25 6.54822 19.25 10C19.25 13.4518 16.4518 16.25 13 16.25C9.54822 16.25 6.75 13.4518 6.75 10C6.75 6.54822 9.54822 3.75 13 3.75Z" fill="#111111"/>
<path d="M17.9242 15.9848L18.2777 15.6313L17.9567 15.3103L17.6063 15.5989L17.9242 15.9848ZM23.4697 21.5303L23.1161 21.8839L23.1291 21.8968L23.1429 21.9088L23.4697 21.5303ZM23.5538 21.6029L23.2271 21.9814L23.241 21.9935L23.2559 22.0045L23.5538 21.6029ZM24.5303 21.5303L24.8839 21.8839V21.8839L24.5303 21.5303ZM24.5303 20.4697L24.8839 20.1161V20.1161L24.5303 20.4697ZM18.9848 14.9242L18.5989 14.6063L18.3103 14.9567L18.6313 15.2777L18.9848 14.9242ZM5.75 10C5.75 5.99594 8.99594 2.75 13 2.75V1.75C8.44365 1.75 4.75 5.44365 4.75 10H5.75ZM13 17.25C8.99594 17.25 5.75 14.0041 5.75 10H4.75C4.75 14.5563 8.44365 18.25 13 18.25V17.25ZM17.6063 15.5989C16.3537 16.6307 14.7498 17.25 13 17.25V18.25C14.9902 18.25 16.817 17.5446 18.2421 16.3708L17.6063 15.5989ZM23.8232 21.1768L18.2777 15.6313L17.5706 16.3384L23.1161 21.8839L23.8232 21.1768ZM23.8805 21.2245L23.7964 21.1519L23.1429 21.9088L23.2271 21.9814L23.8805 21.2245ZM24.1768 21.1768C24.0883 21.2652 23.9492 21.2738 23.8517 21.2014L23.2559 22.0045C23.7456 22.3679 24.4398 22.328 24.8839 21.8839L24.1768 21.1768ZM24.1768 20.8232C24.2744 20.9209 24.2744 21.0791 24.1768 21.1768L24.8839 21.8839C25.372 21.3957 25.372 20.6043 24.8839 20.1161L24.1768 20.8232ZM18.6313 15.2777L24.1768 20.8232L24.8839 20.1161L19.3384 14.5706L18.6313 15.2777ZM20.25 10C20.25 11.7498 19.6307 13.3537 18.5989 14.6063L19.3708 15.2421C20.5446 13.817 21.25 11.9902 21.25 10H20.25ZM13 2.75C17.0041 2.75 20.25 5.99594 20.25 10H21.25C21.25 5.44365 17.5563 1.75 13 1.75V2.75ZM19.75 10C19.75 6.27208 16.7279 3.25 13 3.25V4.25C16.1756 4.25 18.75 6.82436 18.75 10H19.75ZM13 16.75C16.7279 16.75 19.75 13.7279 19.75 10H18.75C18.75 13.1756 16.1756 15.75 13 15.75V16.75ZM6.25 10C6.25 13.7279 9.27208 16.75 13 16.75V15.75C9.82436 15.75 7.25 13.1756 7.25 10H6.25ZM13 3.25C9.27208 3.25 6.25 6.27208 6.25 10H7.25C7.25 6.82436 9.82436 4.25 13 4.25V3.25Z" fill="black"/>
</g>
<defs>
<filter id="filter0_d_1_205" x="0.75" y="1.75" width="28.5" height="28.5" filterUnits="userSpaceOnUse" color-interpolation-filters="sRGB">
<feFlood flood-opacity="0" result="BackgroundImageFix"/>
<feColorMatrix in="SourceAlpha" type="matrix" values="0 0 0 0 0 0 0 0 0 0 0 0 0 0 0 0 0 0 127 0" result="hardAlpha"/>
<feOffset dy="4"/>
<feGaussianBlur stdDeviation="2"/>
<feComposite in2="hardAlpha" operator="out"/>
<feColorMatrix type="matrix" values="0 0 0 0 0 0 0 0 0 0 0 0 0 0 0 0 0 0 0.25 0"/>
<feBlend mode="normal" in2="BackgroundImageFix" result="effect1_dropShadow_1_205"/>
<feBlend mode="normal" in="SourceGraphic" in2="effect1_dropShadow_1_205" result="shape"/>
</filter>
</defs>
</svg>
